%TF.GenerationSoftware,KiCad,Pcbnew,8.0.3*%
%TF.CreationDate,2024-12-07T23:26:37-06:00*%
%TF.ProjectId,CAN Over Ethernet,43414e20-4f76-4657-9220-45746865726e,rev?*%
%TF.SameCoordinates,Original*%
%TF.FileFunction,Legend,Top*%
%TF.FilePolarity,Positive*%
%FSLAX46Y46*%
G04 Gerber Fmt 4.6, Leading zero omitted, Abs format (unit mm)*
G04 Created by KiCad (PCBNEW 8.0.3) date 2024-12-07 23:26:37*
%MOMM*%
%LPD*%
G01*
G04 APERTURE LIST*
%ADD10C,0.250000*%
%ADD11C,0.180000*%
%ADD12C,0.190000*%
%ADD13C,0.150000*%
%ADD14C,0.254000*%
%ADD15C,0.120000*%
%ADD16C,0.000000*%
%ADD17C,0.200000*%
%ADD18C,0.100000*%
%ADD19C,3.650000*%
G04 APERTURE END LIST*
D10*
X108110000Y-48830000D02*
X108990000Y-48830000D01*
X108990000Y-52170000D01*
X108110000Y-52170000D01*
X108110000Y-48830000D01*
G36*
X108110000Y-48830000D02*
G01*
X108990000Y-48830000D01*
X108990000Y-52170000D01*
X108110000Y-52170000D01*
X108110000Y-48830000D01*
G37*
X110600000Y-48830000D02*
X111480000Y-48830000D01*
X111480000Y-52170000D01*
X110600000Y-52170000D01*
X110600000Y-48830000D01*
G36*
X110600000Y-48830000D02*
G01*
X111480000Y-48830000D01*
X111480000Y-52170000D01*
X110600000Y-52170000D01*
X110600000Y-48830000D01*
G37*
D11*
X100028572Y-54379816D02*
X100028572Y-55236959D01*
X100028572Y-55236959D02*
X99971429Y-55408388D01*
X99971429Y-55408388D02*
X99857143Y-55522674D01*
X99857143Y-55522674D02*
X99685715Y-55579816D01*
X99685715Y-55579816D02*
X99571429Y-55579816D01*
X101114287Y-54779816D02*
X101114287Y-55579816D01*
X100600001Y-54779816D02*
X100600001Y-55408388D01*
X100600001Y-55408388D02*
X100657144Y-55522674D01*
X100657144Y-55522674D02*
X100771429Y-55579816D01*
X100771429Y-55579816D02*
X100942858Y-55579816D01*
X100942858Y-55579816D02*
X101057144Y-55522674D01*
X101057144Y-55522674D02*
X101114287Y-55465531D01*
X101685715Y-55579816D02*
X101685715Y-54779816D01*
X101685715Y-54894102D02*
X101742858Y-54836959D01*
X101742858Y-54836959D02*
X101857143Y-54779816D01*
X101857143Y-54779816D02*
X102028572Y-54779816D01*
X102028572Y-54779816D02*
X102142858Y-54836959D01*
X102142858Y-54836959D02*
X102200001Y-54951245D01*
X102200001Y-54951245D02*
X102200001Y-55579816D01*
X102200001Y-54951245D02*
X102257143Y-54836959D01*
X102257143Y-54836959D02*
X102371429Y-54779816D01*
X102371429Y-54779816D02*
X102542858Y-54779816D01*
X102542858Y-54779816D02*
X102657143Y-54836959D01*
X102657143Y-54836959D02*
X102714286Y-54951245D01*
X102714286Y-54951245D02*
X102714286Y-55579816D01*
X103285715Y-54779816D02*
X103285715Y-55979816D01*
X103285715Y-54836959D02*
X103400001Y-54779816D01*
X103400001Y-54779816D02*
X103628572Y-54779816D01*
X103628572Y-54779816D02*
X103742858Y-54836959D01*
X103742858Y-54836959D02*
X103800001Y-54894102D01*
X103800001Y-54894102D02*
X103857143Y-55008388D01*
X103857143Y-55008388D02*
X103857143Y-55351245D01*
X103857143Y-55351245D02*
X103800001Y-55465531D01*
X103800001Y-55465531D02*
X103742858Y-55522674D01*
X103742858Y-55522674D02*
X103628572Y-55579816D01*
X103628572Y-55579816D02*
X103400001Y-55579816D01*
X103400001Y-55579816D02*
X103285715Y-55522674D01*
X104828572Y-55522674D02*
X104714286Y-55579816D01*
X104714286Y-55579816D02*
X104485715Y-55579816D01*
X104485715Y-55579816D02*
X104371429Y-55522674D01*
X104371429Y-55522674D02*
X104314286Y-55408388D01*
X104314286Y-55408388D02*
X104314286Y-54951245D01*
X104314286Y-54951245D02*
X104371429Y-54836959D01*
X104371429Y-54836959D02*
X104485715Y-54779816D01*
X104485715Y-54779816D02*
X104714286Y-54779816D01*
X104714286Y-54779816D02*
X104828572Y-54836959D01*
X104828572Y-54836959D02*
X104885715Y-54951245D01*
X104885715Y-54951245D02*
X104885715Y-55065531D01*
X104885715Y-55065531D02*
X104314286Y-55179816D01*
X105400000Y-55579816D02*
X105400000Y-54779816D01*
X105400000Y-55008388D02*
X105457143Y-54894102D01*
X105457143Y-54894102D02*
X105514286Y-54836959D01*
X105514286Y-54836959D02*
X105628571Y-54779816D01*
X105628571Y-54779816D02*
X105742857Y-54779816D01*
X107057143Y-55579816D02*
X107057143Y-54779816D01*
X107057143Y-54379816D02*
X107000000Y-54436959D01*
X107000000Y-54436959D02*
X107057143Y-54494102D01*
X107057143Y-54494102D02*
X107114286Y-54436959D01*
X107114286Y-54436959D02*
X107057143Y-54379816D01*
X107057143Y-54379816D02*
X107057143Y-54494102D01*
X107457143Y-54779816D02*
X107914286Y-54779816D01*
X107628572Y-55579816D02*
X107628572Y-54551245D01*
X107628572Y-54551245D02*
X107685715Y-54436959D01*
X107685715Y-54436959D02*
X107800000Y-54379816D01*
X107800000Y-54379816D02*
X107914286Y-54379816D01*
X109228572Y-54951245D02*
X109628572Y-54951245D01*
X109800000Y-55579816D02*
X109228572Y-55579816D01*
X109228572Y-55579816D02*
X109228572Y-54379816D01*
X109228572Y-54379816D02*
X109800000Y-54379816D01*
X110142857Y-54779816D02*
X110600000Y-54779816D01*
X110314286Y-54379816D02*
X110314286Y-55408388D01*
X110314286Y-55408388D02*
X110371429Y-55522674D01*
X110371429Y-55522674D02*
X110485714Y-55579816D01*
X110485714Y-55579816D02*
X110600000Y-55579816D01*
X111000000Y-55579816D02*
X111000000Y-54379816D01*
X111514286Y-55579816D02*
X111514286Y-54951245D01*
X111514286Y-54951245D02*
X111457143Y-54836959D01*
X111457143Y-54836959D02*
X111342857Y-54779816D01*
X111342857Y-54779816D02*
X111171428Y-54779816D01*
X111171428Y-54779816D02*
X111057143Y-54836959D01*
X111057143Y-54836959D02*
X111000000Y-54894102D01*
X98771429Y-57511749D02*
X98771429Y-56711749D01*
X98771429Y-56311749D02*
X98714286Y-56368892D01*
X98714286Y-56368892D02*
X98771429Y-56426035D01*
X98771429Y-56426035D02*
X98828572Y-56368892D01*
X98828572Y-56368892D02*
X98771429Y-56311749D01*
X98771429Y-56311749D02*
X98771429Y-56426035D01*
X99285715Y-57454607D02*
X99400001Y-57511749D01*
X99400001Y-57511749D02*
X99628572Y-57511749D01*
X99628572Y-57511749D02*
X99742858Y-57454607D01*
X99742858Y-57454607D02*
X99800001Y-57340321D01*
X99800001Y-57340321D02*
X99800001Y-57283178D01*
X99800001Y-57283178D02*
X99742858Y-57168892D01*
X99742858Y-57168892D02*
X99628572Y-57111749D01*
X99628572Y-57111749D02*
X99457144Y-57111749D01*
X99457144Y-57111749D02*
X99342858Y-57054607D01*
X99342858Y-57054607D02*
X99285715Y-56940321D01*
X99285715Y-56940321D02*
X99285715Y-56883178D01*
X99285715Y-56883178D02*
X99342858Y-56768892D01*
X99342858Y-56768892D02*
X99457144Y-56711749D01*
X99457144Y-56711749D02*
X99628572Y-56711749D01*
X99628572Y-56711749D02*
X99742858Y-56768892D01*
X101742859Y-57511749D02*
X101742859Y-56311749D01*
X101742859Y-57454607D02*
X101628573Y-57511749D01*
X101628573Y-57511749D02*
X101400001Y-57511749D01*
X101400001Y-57511749D02*
X101285716Y-57454607D01*
X101285716Y-57454607D02*
X101228573Y-57397464D01*
X101228573Y-57397464D02*
X101171430Y-57283178D01*
X101171430Y-57283178D02*
X101171430Y-56940321D01*
X101171430Y-56940321D02*
X101228573Y-56826035D01*
X101228573Y-56826035D02*
X101285716Y-56768892D01*
X101285716Y-56768892D02*
X101400001Y-56711749D01*
X101400001Y-56711749D02*
X101628573Y-56711749D01*
X101628573Y-56711749D02*
X101742859Y-56768892D01*
X102314287Y-57511749D02*
X102314287Y-56711749D01*
X102314287Y-56311749D02*
X102257144Y-56368892D01*
X102257144Y-56368892D02*
X102314287Y-56426035D01*
X102314287Y-56426035D02*
X102371430Y-56368892D01*
X102371430Y-56368892D02*
X102314287Y-56311749D01*
X102314287Y-56311749D02*
X102314287Y-56426035D01*
X102828573Y-57454607D02*
X102942859Y-57511749D01*
X102942859Y-57511749D02*
X103171430Y-57511749D01*
X103171430Y-57511749D02*
X103285716Y-57454607D01*
X103285716Y-57454607D02*
X103342859Y-57340321D01*
X103342859Y-57340321D02*
X103342859Y-57283178D01*
X103342859Y-57283178D02*
X103285716Y-57168892D01*
X103285716Y-57168892D02*
X103171430Y-57111749D01*
X103171430Y-57111749D02*
X103000002Y-57111749D01*
X103000002Y-57111749D02*
X102885716Y-57054607D01*
X102885716Y-57054607D02*
X102828573Y-56940321D01*
X102828573Y-56940321D02*
X102828573Y-56883178D01*
X102828573Y-56883178D02*
X102885716Y-56768892D01*
X102885716Y-56768892D02*
X103000002Y-56711749D01*
X103000002Y-56711749D02*
X103171430Y-56711749D01*
X103171430Y-56711749D02*
X103285716Y-56768892D01*
X104371431Y-57454607D02*
X104257145Y-57511749D01*
X104257145Y-57511749D02*
X104028573Y-57511749D01*
X104028573Y-57511749D02*
X103914288Y-57454607D01*
X103914288Y-57454607D02*
X103857145Y-57397464D01*
X103857145Y-57397464D02*
X103800002Y-57283178D01*
X103800002Y-57283178D02*
X103800002Y-56940321D01*
X103800002Y-56940321D02*
X103857145Y-56826035D01*
X103857145Y-56826035D02*
X103914288Y-56768892D01*
X103914288Y-56768892D02*
X104028573Y-56711749D01*
X104028573Y-56711749D02*
X104257145Y-56711749D01*
X104257145Y-56711749D02*
X104371431Y-56768892D01*
X105057144Y-57511749D02*
X104942859Y-57454607D01*
X104942859Y-57454607D02*
X104885716Y-57397464D01*
X104885716Y-57397464D02*
X104828573Y-57283178D01*
X104828573Y-57283178D02*
X104828573Y-56940321D01*
X104828573Y-56940321D02*
X104885716Y-56826035D01*
X104885716Y-56826035D02*
X104942859Y-56768892D01*
X104942859Y-56768892D02*
X105057144Y-56711749D01*
X105057144Y-56711749D02*
X105228573Y-56711749D01*
X105228573Y-56711749D02*
X105342859Y-56768892D01*
X105342859Y-56768892D02*
X105400002Y-56826035D01*
X105400002Y-56826035D02*
X105457144Y-56940321D01*
X105457144Y-56940321D02*
X105457144Y-57283178D01*
X105457144Y-57283178D02*
X105400002Y-57397464D01*
X105400002Y-57397464D02*
X105342859Y-57454607D01*
X105342859Y-57454607D02*
X105228573Y-57511749D01*
X105228573Y-57511749D02*
X105057144Y-57511749D01*
X105971430Y-56711749D02*
X105971430Y-57511749D01*
X105971430Y-56826035D02*
X106028573Y-56768892D01*
X106028573Y-56768892D02*
X106142858Y-56711749D01*
X106142858Y-56711749D02*
X106314287Y-56711749D01*
X106314287Y-56711749D02*
X106428573Y-56768892D01*
X106428573Y-56768892D02*
X106485716Y-56883178D01*
X106485716Y-56883178D02*
X106485716Y-57511749D01*
X107057144Y-56711749D02*
X107057144Y-57511749D01*
X107057144Y-56826035D02*
X107114287Y-56768892D01*
X107114287Y-56768892D02*
X107228572Y-56711749D01*
X107228572Y-56711749D02*
X107400001Y-56711749D01*
X107400001Y-56711749D02*
X107514287Y-56768892D01*
X107514287Y-56768892D02*
X107571430Y-56883178D01*
X107571430Y-56883178D02*
X107571430Y-57511749D01*
X108600001Y-57454607D02*
X108485715Y-57511749D01*
X108485715Y-57511749D02*
X108257144Y-57511749D01*
X108257144Y-57511749D02*
X108142858Y-57454607D01*
X108142858Y-57454607D02*
X108085715Y-57340321D01*
X108085715Y-57340321D02*
X108085715Y-56883178D01*
X108085715Y-56883178D02*
X108142858Y-56768892D01*
X108142858Y-56768892D02*
X108257144Y-56711749D01*
X108257144Y-56711749D02*
X108485715Y-56711749D01*
X108485715Y-56711749D02*
X108600001Y-56768892D01*
X108600001Y-56768892D02*
X108657144Y-56883178D01*
X108657144Y-56883178D02*
X108657144Y-56997464D01*
X108657144Y-56997464D02*
X108085715Y-57111749D01*
X109685715Y-57454607D02*
X109571429Y-57511749D01*
X109571429Y-57511749D02*
X109342857Y-57511749D01*
X109342857Y-57511749D02*
X109228572Y-57454607D01*
X109228572Y-57454607D02*
X109171429Y-57397464D01*
X109171429Y-57397464D02*
X109114286Y-57283178D01*
X109114286Y-57283178D02*
X109114286Y-56940321D01*
X109114286Y-56940321D02*
X109171429Y-56826035D01*
X109171429Y-56826035D02*
X109228572Y-56768892D01*
X109228572Y-56768892D02*
X109342857Y-56711749D01*
X109342857Y-56711749D02*
X109571429Y-56711749D01*
X109571429Y-56711749D02*
X109685715Y-56768892D01*
X110028571Y-56711749D02*
X110485714Y-56711749D01*
X110200000Y-56311749D02*
X110200000Y-57340321D01*
X110200000Y-57340321D02*
X110257143Y-57454607D01*
X110257143Y-57454607D02*
X110371428Y-57511749D01*
X110371428Y-57511749D02*
X110485714Y-57511749D01*
X111342857Y-57454607D02*
X111228571Y-57511749D01*
X111228571Y-57511749D02*
X111000000Y-57511749D01*
X111000000Y-57511749D02*
X110885714Y-57454607D01*
X110885714Y-57454607D02*
X110828571Y-57340321D01*
X110828571Y-57340321D02*
X110828571Y-56883178D01*
X110828571Y-56883178D02*
X110885714Y-56768892D01*
X110885714Y-56768892D02*
X111000000Y-56711749D01*
X111000000Y-56711749D02*
X111228571Y-56711749D01*
X111228571Y-56711749D02*
X111342857Y-56768892D01*
X111342857Y-56768892D02*
X111400000Y-56883178D01*
X111400000Y-56883178D02*
X111400000Y-56997464D01*
X111400000Y-56997464D02*
X110828571Y-57111749D01*
X112428571Y-57511749D02*
X112428571Y-56311749D01*
X112428571Y-57454607D02*
X112314285Y-57511749D01*
X112314285Y-57511749D02*
X112085713Y-57511749D01*
X112085713Y-57511749D02*
X111971428Y-57454607D01*
X111971428Y-57454607D02*
X111914285Y-57397464D01*
X111914285Y-57397464D02*
X111857142Y-57283178D01*
X111857142Y-57283178D02*
X111857142Y-56940321D01*
X111857142Y-56940321D02*
X111914285Y-56826035D01*
X111914285Y-56826035D02*
X111971428Y-56768892D01*
X111971428Y-56768892D02*
X112085713Y-56711749D01*
X112085713Y-56711749D02*
X112314285Y-56711749D01*
X112314285Y-56711749D02*
X112428571Y-56768892D01*
D12*
X102747555Y-67826878D02*
X102314221Y-67826878D01*
X102314221Y-68507830D02*
X102314221Y-67207830D01*
X102314221Y-67207830D02*
X102933269Y-67207830D01*
X104171364Y-68507830D02*
X103738031Y-67888783D01*
X103428507Y-68507830D02*
X103428507Y-67207830D01*
X103428507Y-67207830D02*
X103923745Y-67207830D01*
X103923745Y-67207830D02*
X104047555Y-67269735D01*
X104047555Y-67269735D02*
X104109460Y-67331640D01*
X104109460Y-67331640D02*
X104171364Y-67455449D01*
X104171364Y-67455449D02*
X104171364Y-67641164D01*
X104171364Y-67641164D02*
X104109460Y-67764973D01*
X104109460Y-67764973D02*
X104047555Y-67826878D01*
X104047555Y-67826878D02*
X103923745Y-67888783D01*
X103923745Y-67888783D02*
X103428507Y-67888783D01*
X105471364Y-68384021D02*
X105409460Y-68445926D01*
X105409460Y-68445926D02*
X105223745Y-68507830D01*
X105223745Y-68507830D02*
X105099936Y-68507830D01*
X105099936Y-68507830D02*
X104914222Y-68445926D01*
X104914222Y-68445926D02*
X104790412Y-68322116D01*
X104790412Y-68322116D02*
X104728507Y-68198306D01*
X104728507Y-68198306D02*
X104666603Y-67950687D01*
X104666603Y-67950687D02*
X104666603Y-67764973D01*
X104666603Y-67764973D02*
X104728507Y-67517354D01*
X104728507Y-67517354D02*
X104790412Y-67393545D01*
X104790412Y-67393545D02*
X104914222Y-67269735D01*
X104914222Y-67269735D02*
X105099936Y-67207830D01*
X105099936Y-67207830D02*
X105223745Y-67207830D01*
X105223745Y-67207830D02*
X105409460Y-67269735D01*
X105409460Y-67269735D02*
X105471364Y-67331640D01*
X105966603Y-67331640D02*
X106028507Y-67269735D01*
X106028507Y-67269735D02*
X106152317Y-67207830D01*
X106152317Y-67207830D02*
X106461841Y-67207830D01*
X106461841Y-67207830D02*
X106585650Y-67269735D01*
X106585650Y-67269735D02*
X106647555Y-67331640D01*
X106647555Y-67331640D02*
X106709460Y-67455449D01*
X106709460Y-67455449D02*
X106709460Y-67579259D01*
X106709460Y-67579259D02*
X106647555Y-67764973D01*
X106647555Y-67764973D02*
X105904698Y-68507830D01*
X105904698Y-68507830D02*
X106709460Y-68507830D01*
X107823745Y-67641164D02*
X107823745Y-68507830D01*
X107514221Y-67145926D02*
X107204698Y-68074497D01*
X107204698Y-68074497D02*
X108009459Y-68074497D01*
X109061840Y-67207830D02*
X108814221Y-67207830D01*
X108814221Y-67207830D02*
X108690412Y-67269735D01*
X108690412Y-67269735D02*
X108628507Y-67331640D01*
X108628507Y-67331640D02*
X108504697Y-67517354D01*
X108504697Y-67517354D02*
X108442793Y-67764973D01*
X108442793Y-67764973D02*
X108442793Y-68260211D01*
X108442793Y-68260211D02*
X108504697Y-68384021D01*
X108504697Y-68384021D02*
X108566602Y-68445926D01*
X108566602Y-68445926D02*
X108690412Y-68507830D01*
X108690412Y-68507830D02*
X108938031Y-68507830D01*
X108938031Y-68507830D02*
X109061840Y-68445926D01*
X109061840Y-68445926D02*
X109123745Y-68384021D01*
X109123745Y-68384021D02*
X109185650Y-68260211D01*
X109185650Y-68260211D02*
X109185650Y-67950687D01*
X109185650Y-67950687D02*
X109123745Y-67826878D01*
X109123745Y-67826878D02*
X109061840Y-67764973D01*
X109061840Y-67764973D02*
X108938031Y-67703068D01*
X108938031Y-67703068D02*
X108690412Y-67703068D01*
X108690412Y-67703068D02*
X108566602Y-67764973D01*
X108566602Y-67764973D02*
X108504697Y-67826878D01*
X108504697Y-67826878D02*
X108442793Y-67950687D01*
X109928507Y-67764973D02*
X109804697Y-67703068D01*
X109804697Y-67703068D02*
X109742792Y-67641164D01*
X109742792Y-67641164D02*
X109680888Y-67517354D01*
X109680888Y-67517354D02*
X109680888Y-67455449D01*
X109680888Y-67455449D02*
X109742792Y-67331640D01*
X109742792Y-67331640D02*
X109804697Y-67269735D01*
X109804697Y-67269735D02*
X109928507Y-67207830D01*
X109928507Y-67207830D02*
X110176126Y-67207830D01*
X110176126Y-67207830D02*
X110299935Y-67269735D01*
X110299935Y-67269735D02*
X110361840Y-67331640D01*
X110361840Y-67331640D02*
X110423745Y-67455449D01*
X110423745Y-67455449D02*
X110423745Y-67517354D01*
X110423745Y-67517354D02*
X110361840Y-67641164D01*
X110361840Y-67641164D02*
X110299935Y-67703068D01*
X110299935Y-67703068D02*
X110176126Y-67764973D01*
X110176126Y-67764973D02*
X109928507Y-67764973D01*
X109928507Y-67764973D02*
X109804697Y-67826878D01*
X109804697Y-67826878D02*
X109742792Y-67888783D01*
X109742792Y-67888783D02*
X109680888Y-68012592D01*
X109680888Y-68012592D02*
X109680888Y-68260211D01*
X109680888Y-68260211D02*
X109742792Y-68384021D01*
X109742792Y-68384021D02*
X109804697Y-68445926D01*
X109804697Y-68445926D02*
X109928507Y-68507830D01*
X109928507Y-68507830D02*
X110176126Y-68507830D01*
X110176126Y-68507830D02*
X110299935Y-68445926D01*
X110299935Y-68445926D02*
X110361840Y-68384021D01*
X110361840Y-68384021D02*
X110423745Y-68260211D01*
X110423745Y-68260211D02*
X110423745Y-68012592D01*
X110423745Y-68012592D02*
X110361840Y-67888783D01*
X110361840Y-67888783D02*
X110299935Y-67826878D01*
X110299935Y-67826878D02*
X110176126Y-67764973D01*
X99126126Y-71886762D02*
X99064221Y-71824858D01*
X99064221Y-71824858D02*
X98940412Y-71639143D01*
X98940412Y-71639143D02*
X98878507Y-71515334D01*
X98878507Y-71515334D02*
X98816602Y-71329620D01*
X98816602Y-71329620D02*
X98754697Y-71020096D01*
X98754697Y-71020096D02*
X98754697Y-70772477D01*
X98754697Y-70772477D02*
X98816602Y-70462953D01*
X98816602Y-70462953D02*
X98878507Y-70277239D01*
X98878507Y-70277239D02*
X98940412Y-70153429D01*
X98940412Y-70153429D02*
X99064221Y-69967715D01*
X99064221Y-69967715D02*
X99126126Y-69905810D01*
X100178507Y-71329620D02*
X100054698Y-71391524D01*
X100054698Y-71391524D02*
X99807079Y-71391524D01*
X99807079Y-71391524D02*
X99683269Y-71329620D01*
X99683269Y-71329620D02*
X99621364Y-71267715D01*
X99621364Y-71267715D02*
X99559460Y-71143905D01*
X99559460Y-71143905D02*
X99559460Y-70772477D01*
X99559460Y-70772477D02*
X99621364Y-70648667D01*
X99621364Y-70648667D02*
X99683269Y-70586762D01*
X99683269Y-70586762D02*
X99807079Y-70524858D01*
X99807079Y-70524858D02*
X100054698Y-70524858D01*
X100054698Y-70524858D02*
X100178507Y-70586762D01*
X100611841Y-71886762D02*
X100673746Y-71824858D01*
X100673746Y-71824858D02*
X100797555Y-71639143D01*
X100797555Y-71639143D02*
X100859460Y-71515334D01*
X100859460Y-71515334D02*
X100921365Y-71329620D01*
X100921365Y-71329620D02*
X100983269Y-71020096D01*
X100983269Y-71020096D02*
X100983269Y-70772477D01*
X100983269Y-70772477D02*
X100921365Y-70462953D01*
X100921365Y-70462953D02*
X100859460Y-70277239D01*
X100859460Y-70277239D02*
X100797555Y-70153429D01*
X100797555Y-70153429D02*
X100673746Y-69967715D01*
X100673746Y-69967715D02*
X100611841Y-69905810D01*
X102530889Y-70215334D02*
X102592793Y-70153429D01*
X102592793Y-70153429D02*
X102716603Y-70091524D01*
X102716603Y-70091524D02*
X103026127Y-70091524D01*
X103026127Y-70091524D02*
X103149936Y-70153429D01*
X103149936Y-70153429D02*
X103211841Y-70215334D01*
X103211841Y-70215334D02*
X103273746Y-70339143D01*
X103273746Y-70339143D02*
X103273746Y-70462953D01*
X103273746Y-70462953D02*
X103211841Y-70648667D01*
X103211841Y-70648667D02*
X102468984Y-71391524D01*
X102468984Y-71391524D02*
X103273746Y-71391524D01*
X104078507Y-70091524D02*
X104202317Y-70091524D01*
X104202317Y-70091524D02*
X104326126Y-70153429D01*
X104326126Y-70153429D02*
X104388031Y-70215334D01*
X104388031Y-70215334D02*
X104449936Y-70339143D01*
X104449936Y-70339143D02*
X104511841Y-70586762D01*
X104511841Y-70586762D02*
X104511841Y-70896286D01*
X104511841Y-70896286D02*
X104449936Y-71143905D01*
X104449936Y-71143905D02*
X104388031Y-71267715D01*
X104388031Y-71267715D02*
X104326126Y-71329620D01*
X104326126Y-71329620D02*
X104202317Y-71391524D01*
X104202317Y-71391524D02*
X104078507Y-71391524D01*
X104078507Y-71391524D02*
X103954698Y-71329620D01*
X103954698Y-71329620D02*
X103892793Y-71267715D01*
X103892793Y-71267715D02*
X103830888Y-71143905D01*
X103830888Y-71143905D02*
X103768984Y-70896286D01*
X103768984Y-70896286D02*
X103768984Y-70586762D01*
X103768984Y-70586762D02*
X103830888Y-70339143D01*
X103830888Y-70339143D02*
X103892793Y-70215334D01*
X103892793Y-70215334D02*
X103954698Y-70153429D01*
X103954698Y-70153429D02*
X104078507Y-70091524D01*
X105007079Y-70215334D02*
X105068983Y-70153429D01*
X105068983Y-70153429D02*
X105192793Y-70091524D01*
X105192793Y-70091524D02*
X105502317Y-70091524D01*
X105502317Y-70091524D02*
X105626126Y-70153429D01*
X105626126Y-70153429D02*
X105688031Y-70215334D01*
X105688031Y-70215334D02*
X105749936Y-70339143D01*
X105749936Y-70339143D02*
X105749936Y-70462953D01*
X105749936Y-70462953D02*
X105688031Y-70648667D01*
X105688031Y-70648667D02*
X104945174Y-71391524D01*
X104945174Y-71391524D02*
X105749936Y-71391524D01*
X106864221Y-70524858D02*
X106864221Y-71391524D01*
X106554697Y-70029620D02*
X106245174Y-70958191D01*
X106245174Y-70958191D02*
X107049935Y-70958191D01*
X107607078Y-71329620D02*
X107607078Y-71391524D01*
X107607078Y-71391524D02*
X107545173Y-71515334D01*
X107545173Y-71515334D02*
X107483269Y-71577239D01*
X109092793Y-71329620D02*
X109278507Y-71391524D01*
X109278507Y-71391524D02*
X109588031Y-71391524D01*
X109588031Y-71391524D02*
X109711840Y-71329620D01*
X109711840Y-71329620D02*
X109773745Y-71267715D01*
X109773745Y-71267715D02*
X109835650Y-71143905D01*
X109835650Y-71143905D02*
X109835650Y-71020096D01*
X109835650Y-71020096D02*
X109773745Y-70896286D01*
X109773745Y-70896286D02*
X109711840Y-70834381D01*
X109711840Y-70834381D02*
X109588031Y-70772477D01*
X109588031Y-70772477D02*
X109340412Y-70710572D01*
X109340412Y-70710572D02*
X109216602Y-70648667D01*
X109216602Y-70648667D02*
X109154697Y-70586762D01*
X109154697Y-70586762D02*
X109092793Y-70462953D01*
X109092793Y-70462953D02*
X109092793Y-70339143D01*
X109092793Y-70339143D02*
X109154697Y-70215334D01*
X109154697Y-70215334D02*
X109216602Y-70153429D01*
X109216602Y-70153429D02*
X109340412Y-70091524D01*
X109340412Y-70091524D02*
X109649935Y-70091524D01*
X109649935Y-70091524D02*
X109835650Y-70153429D01*
X110392792Y-71391524D02*
X110392792Y-70091524D01*
X110392792Y-70710572D02*
X111135649Y-70710572D01*
X111135649Y-71391524D02*
X111135649Y-70091524D01*
X112497554Y-71391524D02*
X112064221Y-70772477D01*
X111754697Y-71391524D02*
X111754697Y-70091524D01*
X111754697Y-70091524D02*
X112249935Y-70091524D01*
X112249935Y-70091524D02*
X112373745Y-70153429D01*
X112373745Y-70153429D02*
X112435650Y-70215334D01*
X112435650Y-70215334D02*
X112497554Y-70339143D01*
X112497554Y-70339143D02*
X112497554Y-70524858D01*
X112497554Y-70524858D02*
X112435650Y-70648667D01*
X112435650Y-70648667D02*
X112373745Y-70710572D01*
X112373745Y-70710572D02*
X112249935Y-70772477D01*
X112249935Y-70772477D02*
X111754697Y-70772477D01*
X113054697Y-71391524D02*
X113054697Y-70091524D01*
X113054697Y-70091524D02*
X113488031Y-71020096D01*
X113488031Y-71020096D02*
X113921364Y-70091524D01*
X113921364Y-70091524D02*
X113921364Y-71391524D01*
D13*
X95066666Y-58854819D02*
X95066666Y-59569104D01*
X95066666Y-59569104D02*
X95019047Y-59711961D01*
X95019047Y-59711961D02*
X94923809Y-59807200D01*
X94923809Y-59807200D02*
X94780952Y-59854819D01*
X94780952Y-59854819D02*
X94685714Y-59854819D01*
X95447619Y-58854819D02*
X96066666Y-58854819D01*
X96066666Y-58854819D02*
X95733333Y-59235771D01*
X95733333Y-59235771D02*
X95876190Y-59235771D01*
X95876190Y-59235771D02*
X95971428Y-59283390D01*
X95971428Y-59283390D02*
X96019047Y-59331009D01*
X96019047Y-59331009D02*
X96066666Y-59426247D01*
X96066666Y-59426247D02*
X96066666Y-59664342D01*
X96066666Y-59664342D02*
X96019047Y-59759580D01*
X96019047Y-59759580D02*
X95971428Y-59807200D01*
X95971428Y-59807200D02*
X95876190Y-59854819D01*
X95876190Y-59854819D02*
X95590476Y-59854819D01*
X95590476Y-59854819D02*
X95495238Y-59807200D01*
X95495238Y-59807200D02*
X95447619Y-59759580D01*
X95166666Y-74072319D02*
X95166666Y-74786604D01*
X95166666Y-74786604D02*
X95119047Y-74929461D01*
X95119047Y-74929461D02*
X95023809Y-75024700D01*
X95023809Y-75024700D02*
X94880952Y-75072319D01*
X94880952Y-75072319D02*
X94785714Y-75072319D01*
X96166666Y-75072319D02*
X95595238Y-75072319D01*
X95880952Y-75072319D02*
X95880952Y-74072319D01*
X95880952Y-74072319D02*
X95785714Y-74215176D01*
X95785714Y-74215176D02*
X95690476Y-74310414D01*
X95690476Y-74310414D02*
X95595238Y-74358033D01*
X99954819Y-49133333D02*
X100669104Y-49133333D01*
X100669104Y-49133333D02*
X100811961Y-49180952D01*
X100811961Y-49180952D02*
X100907200Y-49276190D01*
X100907200Y-49276190D02*
X100954819Y-49419047D01*
X100954819Y-49419047D02*
X100954819Y-49514285D01*
X100050057Y-48704761D02*
X100002438Y-48657142D01*
X100002438Y-48657142D02*
X99954819Y-48561904D01*
X99954819Y-48561904D02*
X99954819Y-48323809D01*
X99954819Y-48323809D02*
X100002438Y-48228571D01*
X100002438Y-48228571D02*
X100050057Y-48180952D01*
X100050057Y-48180952D02*
X100145295Y-48133333D01*
X100145295Y-48133333D02*
X100240533Y-48133333D01*
X100240533Y-48133333D02*
X100383390Y-48180952D01*
X100383390Y-48180952D02*
X100954819Y-48752380D01*
X100954819Y-48752380D02*
X100954819Y-48133333D01*
D14*
X111776667Y-74121818D02*
X111776667Y-75028961D01*
X111776667Y-75028961D02*
X111716190Y-75210389D01*
X111716190Y-75210389D02*
X111595238Y-75331342D01*
X111595238Y-75331342D02*
X111413809Y-75391818D01*
X111413809Y-75391818D02*
X111292857Y-75391818D01*
X112925714Y-74545151D02*
X112925714Y-75391818D01*
X112623333Y-74061342D02*
X112320952Y-74968484D01*
X112320952Y-74968484D02*
X113107143Y-74968484D01*
D15*
%TO.C,J3*%
X78417500Y-44750000D02*
X94147500Y-44750000D01*
X78417500Y-61490000D02*
X78417500Y-44750000D01*
X78427500Y-61490000D02*
X94147500Y-61490000D01*
X94147500Y-61490000D02*
X94147500Y-44750000D01*
X94227500Y-57700000D02*
X94727500Y-58200000D01*
X94727500Y-57200000D02*
X94227500Y-57700000D01*
X94727500Y-58200000D02*
X94727500Y-57200000D01*
D16*
%TO.C,REF\u002A\u002A*%
G36*
X107773233Y-62547067D02*
G01*
X107910730Y-62552404D01*
X108031621Y-62561349D01*
X108119947Y-62573534D01*
X108158521Y-62587079D01*
X108169023Y-62609359D01*
X108138199Y-62621695D01*
X108056856Y-62626547D01*
X108009526Y-62626942D01*
X107869146Y-62630427D01*
X107709184Y-62639148D01*
X107611253Y-62646967D01*
X107480632Y-62654394D01*
X107404317Y-62646030D01*
X107378178Y-62628777D01*
X107369540Y-62581402D01*
X107376355Y-62569114D01*
X107420691Y-62556359D01*
X107512254Y-62548678D01*
X107635088Y-62545702D01*
X107773233Y-62547067D01*
G37*
G36*
X104142447Y-64452201D02*
G01*
X104212909Y-64463295D01*
X104329045Y-64475428D01*
X104473168Y-64486940D01*
X104590795Y-64494266D01*
X104746951Y-64503776D01*
X104853619Y-64514330D01*
X104924693Y-64529251D01*
X104974067Y-64551860D01*
X105015632Y-64585478D01*
X105029621Y-64599171D01*
X105079776Y-64662010D01*
X105097002Y-64710599D01*
X105094695Y-64718085D01*
X105052390Y-64736206D01*
X104965036Y-64745402D01*
X104850450Y-64745105D01*
X104726450Y-64734750D01*
X104697379Y-64730722D01*
X104521209Y-64692148D01*
X104353022Y-64634097D01*
X104214444Y-64564848D01*
X104157629Y-64524087D01*
X104047316Y-64429352D01*
X104142447Y-64452201D01*
G37*
G36*
X108513529Y-62187044D02*
G01*
X108627994Y-62191972D01*
X108695237Y-62201824D01*
X108708740Y-62214482D01*
X108668515Y-62232057D01*
X108585846Y-62243572D01*
X108515173Y-62246192D01*
X108383659Y-62252761D01*
X108203859Y-62271233D01*
X107989396Y-62299756D01*
X107753894Y-62336481D01*
X107510978Y-62379556D01*
X107455456Y-62390173D01*
X107321232Y-62415901D01*
X107233459Y-62429074D01*
X107176174Y-62428417D01*
X107133419Y-62412651D01*
X107089233Y-62380499D01*
X107062668Y-62358740D01*
X106970405Y-62283306D01*
X107110234Y-62266828D01*
X107315192Y-62245151D01*
X107532945Y-62226433D01*
X107754917Y-62210953D01*
X107972535Y-62198994D01*
X108177225Y-62190835D01*
X108360414Y-62186758D01*
X108513529Y-62187044D01*
G37*
G36*
X108227634Y-61775160D02*
G01*
X108549354Y-61795246D01*
X108828638Y-61831218D01*
X108968160Y-61855652D01*
X109082738Y-61877497D01*
X109159029Y-61894096D01*
X109183677Y-61901946D01*
X109161392Y-61906648D01*
X109090418Y-61906924D01*
X108985332Y-61902779D01*
X108968648Y-61901842D01*
X108726491Y-61898711D01*
X108440713Y-61913015D01*
X108128084Y-61942829D01*
X107805376Y-61986227D01*
X107489361Y-62041283D01*
X107202497Y-62104649D01*
X107088544Y-62132387D01*
X106986995Y-62155968D01*
X106943833Y-62165324D01*
X106864235Y-62184041D01*
X106816991Y-62198159D01*
X106755679Y-62196049D01*
X106726842Y-62182924D01*
X106659482Y-62159025D01*
X106593944Y-62151547D01*
X106514888Y-62143397D01*
X106491175Y-62121951D01*
X106516764Y-62089856D01*
X106585616Y-62049762D01*
X106691690Y-62004316D01*
X106828945Y-61956167D01*
X106991341Y-61907963D01*
X107172838Y-61862354D01*
X107329003Y-61829266D01*
X107596295Y-61792142D01*
X107902893Y-61774116D01*
X108227634Y-61775160D01*
G37*
G36*
X104693843Y-63701334D02*
G01*
X104714751Y-63771814D01*
X104727230Y-63863709D01*
X104728656Y-63901983D01*
X104741537Y-63992614D01*
X104771969Y-64090934D01*
X104772513Y-64092245D01*
X104814074Y-64199236D01*
X104849034Y-64299438D01*
X104882132Y-64402497D01*
X104591566Y-64398086D01*
X104423506Y-64391105D01*
X104243689Y-64376657D01*
X104086569Y-64357623D01*
X104063171Y-64353901D01*
X103870675Y-64318702D01*
X103709061Y-64283219D01*
X103586736Y-64249697D01*
X103512104Y-64220384D01*
X103492385Y-64201338D01*
X103515596Y-64186211D01*
X103537901Y-64191205D01*
X103620067Y-64200820D01*
X103740052Y-64187959D01*
X103883248Y-64157283D01*
X104035048Y-64113450D01*
X104180843Y-64061120D01*
X104306026Y-64004953D01*
X104395987Y-63949606D01*
X104434428Y-63905254D01*
X104470942Y-63866853D01*
X104486726Y-63863330D01*
X104526904Y-63839155D01*
X104578352Y-63779920D01*
X104586392Y-63768290D01*
X104633253Y-63705630D01*
X104666613Y-63674127D01*
X104669898Y-63673250D01*
X104693843Y-63701334D01*
G37*
G36*
X106425671Y-62234375D02*
G01*
X106692865Y-62294023D01*
X106938788Y-62399657D01*
X107150834Y-62549562D01*
X107160158Y-62558038D01*
X107369832Y-62790438D01*
X107521660Y-63046625D01*
X107614415Y-63322625D01*
X107646871Y-63614464D01*
X107617802Y-63918168D01*
X107602047Y-63990262D01*
X107508848Y-64247122D01*
X107364851Y-64476312D01*
X107178424Y-64672996D01*
X106957936Y-64832337D01*
X106711758Y-64949496D01*
X106448259Y-65019637D01*
X106175807Y-65037923D01*
X105902773Y-64999516D01*
X105870662Y-64990950D01*
X105575424Y-64879540D01*
X105326184Y-64725399D01*
X105124849Y-64531020D01*
X104973328Y-64298897D01*
X104873529Y-64031521D01*
X104827362Y-63731387D01*
X104824220Y-63623931D01*
X104854223Y-63330183D01*
X104857642Y-63319356D01*
X105627944Y-63319356D01*
X105634841Y-63383793D01*
X105646484Y-63400963D01*
X105706746Y-63443031D01*
X105743821Y-63451186D01*
X105809423Y-63428312D01*
X105841158Y-63400963D01*
X105862994Y-63336574D01*
X105834432Y-63278892D01*
X105767303Y-63246861D01*
X105743821Y-63245069D01*
X105668214Y-63266798D01*
X105627944Y-63319356D01*
X104857642Y-63319356D01*
X104941092Y-63055058D01*
X105080119Y-62806077D01*
X105266595Y-62590763D01*
X105495813Y-62416639D01*
X105622525Y-62348529D01*
X105877894Y-62259910D01*
X106149812Y-62222431D01*
X106425671Y-62234375D01*
G37*
G36*
X107487270Y-64553121D02*
G01*
X107508075Y-64604896D01*
X107543384Y-64650559D01*
X107629779Y-64744312D01*
X107714021Y-64844918D01*
X107804288Y-64963249D01*
X107908760Y-65110174D01*
X108035617Y-65296563D01*
X108084506Y-65369663D01*
X108184250Y-65517382D01*
X108273212Y-65645563D01*
X108344981Y-65745253D01*
X108393145Y-65807493D01*
X108409833Y-65824178D01*
X108437290Y-65860575D01*
X108439201Y-65875789D01*
X108461461Y-65928970D01*
X108486767Y-65956305D01*
X108526630Y-66002080D01*
X108534333Y-66023608D01*
X108504570Y-66033803D01*
X108423057Y-66042178D01*
X108301453Y-66047988D01*
X108151418Y-66050484D01*
X108114170Y-66050512D01*
X107694008Y-66049587D01*
X107551311Y-65854533D01*
X107480561Y-65756296D01*
X107424738Y-65675959D01*
X107394465Y-65628861D01*
X107392759Y-65625557D01*
X107367178Y-65580665D01*
X107319805Y-65504357D01*
X107289701Y-65457497D01*
X107239685Y-65377327D01*
X107208141Y-65320543D01*
X107202497Y-65305589D01*
X107185915Y-65271465D01*
X107146065Y-65208532D01*
X107097788Y-65138676D01*
X107055929Y-65083778D01*
X107041632Y-65068415D01*
X107016051Y-65027929D01*
X107003751Y-64999050D01*
X107007925Y-64954888D01*
X107058598Y-64905243D01*
X107122017Y-64864680D01*
X107226600Y-64789783D01*
X107332759Y-64693130D01*
X107373323Y-64648651D01*
X107434204Y-64582378D01*
X107475588Y-64549448D01*
X107487270Y-64553121D01*
G37*
D15*
%TO.C,J1*%
X78072500Y-77037500D02*
X78072500Y-78037500D01*
X78072500Y-78037500D02*
X78572500Y-77537500D01*
X78572500Y-77537500D02*
X78072500Y-77037500D01*
X78652500Y-73747500D02*
X78652500Y-90487500D01*
X94372500Y-73747500D02*
X78652500Y-73747500D01*
X94382500Y-73747500D02*
X94382500Y-90487500D01*
X94382500Y-90487500D02*
X78652500Y-90487500D01*
%TO.C,J2*%
X101430000Y-48170000D02*
X101430000Y-53370000D01*
X104030000Y-48170000D02*
X101430000Y-48170000D01*
X104030000Y-48170000D02*
X104030000Y-50770000D01*
X104030000Y-50770000D02*
X106630000Y-50770000D01*
X105300000Y-48170000D02*
X106630000Y-48170000D01*
X106630000Y-48170000D02*
X106630000Y-49500000D01*
X106630000Y-50770000D02*
X106630000Y-53370000D01*
X106630000Y-53370000D02*
X101430000Y-53370000D01*
D17*
%TO.C,J4*%
X96350000Y-77117500D02*
X111850000Y-77117500D01*
X96350000Y-89867500D02*
X96350000Y-77117500D01*
D18*
X109400000Y-90267500D02*
X109400000Y-90267500D01*
X109400000Y-90367500D02*
X109400000Y-90367500D01*
D17*
X111850000Y-77117500D02*
X111850000Y-89867500D01*
X111850000Y-87267500D02*
X112600000Y-87267500D01*
X111850000Y-89867500D02*
X96350000Y-89867500D01*
X112600000Y-79217500D02*
X111850000Y-79217500D01*
X112600000Y-87267500D02*
X112600000Y-79217500D01*
D18*
X109400000Y-90267500D02*
G75*
G02*
X109400000Y-90367500I0J-50000D01*
G01*
X109400000Y-90367500D02*
G75*
G02*
X109400000Y-90267500I0J50000D01*
G01*
%TD*%
D19*
%TO.C,J3*%
X91997500Y-51350000D03*
X80567500Y-51350000D03*
%TD*%
%TO.C,J1*%
X80802500Y-83887500D03*
X92232500Y-83887500D03*
%TD*%
M02*
