%TF.GenerationSoftware,KiCad,Pcbnew,8.0.3*%
%TF.CreationDate,2024-12-07T23:26:44-06:00*%
%TF.ProjectId,CAN Over Ethernet,43414e20-4f76-4657-9220-45746865726e,rev?*%
%TF.SameCoordinates,Original*%
%TF.FileFunction,Drillmap*%
%TF.FilePolarity,Positive*%
%FSLAX45Y45*%
G04 Gerber Fmt 4.5, Leading zero omitted, Abs format (unit mm)*
G04 Created by KiCad (PCBNEW 8.0.3) date 2024-12-07 23:26:44*
%MOMM*%
%LPD*%
G01*
G04 APERTURE LIST*
%ADD10C,0.100000*%
%ADD11C,0.200000*%
%ADD12C,0.345000*%
G04 APERTURE END LIST*
D10*
X7680000Y-4250000D02*
X11480000Y-4250000D01*
X11480000Y-9250000D01*
X7680000Y-9250000D01*
X7680000Y-4250000D01*
D11*
D12*
X7884250Y-4962500D02*
X8229250Y-5307500D01*
X8229250Y-4962500D02*
X7884250Y-5307500D01*
X7907750Y-8216250D02*
X8252750Y-8561250D01*
X8252750Y-8216250D02*
X7907750Y-8561250D01*
X9027250Y-4962500D02*
X9372250Y-5307500D01*
X9372250Y-4962500D02*
X9027250Y-5307500D01*
X9050750Y-8216250D02*
X9395750Y-8561250D01*
X9395750Y-8216250D02*
X9050750Y-8561250D01*
D11*
X7935777Y-9566484D02*
X7935777Y-9366484D01*
X7935777Y-9366484D02*
X7983396Y-9366484D01*
X7983396Y-9366484D02*
X8011967Y-9376008D01*
X8011967Y-9376008D02*
X8031015Y-9395055D01*
X8031015Y-9395055D02*
X8040539Y-9414103D01*
X8040539Y-9414103D02*
X8050062Y-9452198D01*
X8050062Y-9452198D02*
X8050062Y-9480770D01*
X8050062Y-9480770D02*
X8040539Y-9518865D01*
X8040539Y-9518865D02*
X8031015Y-9537912D01*
X8031015Y-9537912D02*
X8011967Y-9556960D01*
X8011967Y-9556960D02*
X7983396Y-9566484D01*
X7983396Y-9566484D02*
X7935777Y-9566484D01*
X8135777Y-9566484D02*
X8135777Y-9433150D01*
X8135777Y-9471246D02*
X8145301Y-9452198D01*
X8145301Y-9452198D02*
X8154824Y-9442674D01*
X8154824Y-9442674D02*
X8173872Y-9433150D01*
X8173872Y-9433150D02*
X8192920Y-9433150D01*
X8259586Y-9566484D02*
X8259586Y-9433150D01*
X8259586Y-9366484D02*
X8250062Y-9376008D01*
X8250062Y-9376008D02*
X8259586Y-9385531D01*
X8259586Y-9385531D02*
X8269110Y-9376008D01*
X8269110Y-9376008D02*
X8259586Y-9366484D01*
X8259586Y-9366484D02*
X8259586Y-9385531D01*
X8383396Y-9566484D02*
X8364348Y-9556960D01*
X8364348Y-9556960D02*
X8354824Y-9537912D01*
X8354824Y-9537912D02*
X8354824Y-9366484D01*
X8488158Y-9566484D02*
X8469110Y-9556960D01*
X8469110Y-9556960D02*
X8459586Y-9537912D01*
X8459586Y-9537912D02*
X8459586Y-9366484D01*
X8716729Y-9566484D02*
X8716729Y-9366484D01*
X8716729Y-9366484D02*
X8783396Y-9509341D01*
X8783396Y-9509341D02*
X8850063Y-9366484D01*
X8850063Y-9366484D02*
X8850063Y-9566484D01*
X9031015Y-9566484D02*
X9031015Y-9461722D01*
X9031015Y-9461722D02*
X9021491Y-9442674D01*
X9021491Y-9442674D02*
X9002444Y-9433150D01*
X9002444Y-9433150D02*
X8964348Y-9433150D01*
X8964348Y-9433150D02*
X8945301Y-9442674D01*
X9031015Y-9556960D02*
X9011967Y-9566484D01*
X9011967Y-9566484D02*
X8964348Y-9566484D01*
X8964348Y-9566484D02*
X8945301Y-9556960D01*
X8945301Y-9556960D02*
X8935777Y-9537912D01*
X8935777Y-9537912D02*
X8935777Y-9518865D01*
X8935777Y-9518865D02*
X8945301Y-9499817D01*
X8945301Y-9499817D02*
X8964348Y-9490293D01*
X8964348Y-9490293D02*
X9011967Y-9490293D01*
X9011967Y-9490293D02*
X9031015Y-9480770D01*
X9126253Y-9433150D02*
X9126253Y-9633150D01*
X9126253Y-9442674D02*
X9145301Y-9433150D01*
X9145301Y-9433150D02*
X9183396Y-9433150D01*
X9183396Y-9433150D02*
X9202444Y-9442674D01*
X9202444Y-9442674D02*
X9211967Y-9452198D01*
X9211967Y-9452198D02*
X9221491Y-9471246D01*
X9221491Y-9471246D02*
X9221491Y-9528389D01*
X9221491Y-9528389D02*
X9211967Y-9547436D01*
X9211967Y-9547436D02*
X9202444Y-9556960D01*
X9202444Y-9556960D02*
X9183396Y-9566484D01*
X9183396Y-9566484D02*
X9145301Y-9566484D01*
X9145301Y-9566484D02*
X9126253Y-9556960D01*
X9307205Y-9547436D02*
X9316729Y-9556960D01*
X9316729Y-9556960D02*
X9307205Y-9566484D01*
X9307205Y-9566484D02*
X9297682Y-9556960D01*
X9297682Y-9556960D02*
X9307205Y-9547436D01*
X9307205Y-9547436D02*
X9307205Y-9566484D01*
X9307205Y-9442674D02*
X9316729Y-9452198D01*
X9316729Y-9452198D02*
X9307205Y-9461722D01*
X9307205Y-9461722D02*
X9297682Y-9452198D01*
X9297682Y-9452198D02*
X9307205Y-9442674D01*
X9307205Y-9442674D02*
X9307205Y-9461722D01*
X7475000Y-9795000D02*
X7675000Y-9995000D01*
X7675000Y-9795000D02*
X7475000Y-9995000D01*
X7916729Y-9786484D02*
X8040539Y-9786484D01*
X8040539Y-9786484D02*
X7973872Y-9862674D01*
X7973872Y-9862674D02*
X8002443Y-9862674D01*
X8002443Y-9862674D02*
X8021491Y-9872198D01*
X8021491Y-9872198D02*
X8031015Y-9881722D01*
X8031015Y-9881722D02*
X8040539Y-9900770D01*
X8040539Y-9900770D02*
X8040539Y-9948389D01*
X8040539Y-9948389D02*
X8031015Y-9967436D01*
X8031015Y-9967436D02*
X8021491Y-9976960D01*
X8021491Y-9976960D02*
X8002443Y-9986484D01*
X8002443Y-9986484D02*
X7945301Y-9986484D01*
X7945301Y-9986484D02*
X7926253Y-9976960D01*
X7926253Y-9976960D02*
X7916729Y-9967436D01*
X8126253Y-9967436D02*
X8135777Y-9976960D01*
X8135777Y-9976960D02*
X8126253Y-9986484D01*
X8126253Y-9986484D02*
X8116729Y-9976960D01*
X8116729Y-9976960D02*
X8126253Y-9967436D01*
X8126253Y-9967436D02*
X8126253Y-9986484D01*
X8307205Y-9853150D02*
X8307205Y-9986484D01*
X8259586Y-9776960D02*
X8211967Y-9919817D01*
X8211967Y-9919817D02*
X8335777Y-9919817D01*
X8507205Y-9786484D02*
X8411967Y-9786484D01*
X8411967Y-9786484D02*
X8402444Y-9881722D01*
X8402444Y-9881722D02*
X8411967Y-9872198D01*
X8411967Y-9872198D02*
X8431015Y-9862674D01*
X8431015Y-9862674D02*
X8478634Y-9862674D01*
X8478634Y-9862674D02*
X8497682Y-9872198D01*
X8497682Y-9872198D02*
X8507205Y-9881722D01*
X8507205Y-9881722D02*
X8516729Y-9900770D01*
X8516729Y-9900770D02*
X8516729Y-9948389D01*
X8516729Y-9948389D02*
X8507205Y-9967436D01*
X8507205Y-9967436D02*
X8497682Y-9976960D01*
X8497682Y-9976960D02*
X8478634Y-9986484D01*
X8478634Y-9986484D02*
X8431015Y-9986484D01*
X8431015Y-9986484D02*
X8411967Y-9976960D01*
X8411967Y-9976960D02*
X8402444Y-9967436D01*
X8640539Y-9786484D02*
X8659586Y-9786484D01*
X8659586Y-9786484D02*
X8678634Y-9796008D01*
X8678634Y-9796008D02*
X8688158Y-9805531D01*
X8688158Y-9805531D02*
X8697682Y-9824579D01*
X8697682Y-9824579D02*
X8707205Y-9862674D01*
X8707205Y-9862674D02*
X8707205Y-9910293D01*
X8707205Y-9910293D02*
X8697682Y-9948389D01*
X8697682Y-9948389D02*
X8688158Y-9967436D01*
X8688158Y-9967436D02*
X8678634Y-9976960D01*
X8678634Y-9976960D02*
X8659586Y-9986484D01*
X8659586Y-9986484D02*
X8640539Y-9986484D01*
X8640539Y-9986484D02*
X8621491Y-9976960D01*
X8621491Y-9976960D02*
X8611967Y-9967436D01*
X8611967Y-9967436D02*
X8602444Y-9948389D01*
X8602444Y-9948389D02*
X8592920Y-9910293D01*
X8592920Y-9910293D02*
X8592920Y-9862674D01*
X8592920Y-9862674D02*
X8602444Y-9824579D01*
X8602444Y-9824579D02*
X8611967Y-9805531D01*
X8611967Y-9805531D02*
X8621491Y-9796008D01*
X8621491Y-9796008D02*
X8640539Y-9786484D01*
X8792920Y-9986484D02*
X8792920Y-9853150D01*
X8792920Y-9872198D02*
X8802444Y-9862674D01*
X8802444Y-9862674D02*
X8821491Y-9853150D01*
X8821491Y-9853150D02*
X8850063Y-9853150D01*
X8850063Y-9853150D02*
X8869110Y-9862674D01*
X8869110Y-9862674D02*
X8878634Y-9881722D01*
X8878634Y-9881722D02*
X8878634Y-9986484D01*
X8878634Y-9881722D02*
X8888158Y-9862674D01*
X8888158Y-9862674D02*
X8907205Y-9853150D01*
X8907205Y-9853150D02*
X8935777Y-9853150D01*
X8935777Y-9853150D02*
X8954825Y-9862674D01*
X8954825Y-9862674D02*
X8964348Y-9881722D01*
X8964348Y-9881722D02*
X8964348Y-9986484D01*
X9059586Y-9986484D02*
X9059586Y-9853150D01*
X9059586Y-9872198D02*
X9069110Y-9862674D01*
X9069110Y-9862674D02*
X9088158Y-9853150D01*
X9088158Y-9853150D02*
X9116729Y-9853150D01*
X9116729Y-9853150D02*
X9135777Y-9862674D01*
X9135777Y-9862674D02*
X9145301Y-9881722D01*
X9145301Y-9881722D02*
X9145301Y-9986484D01*
X9145301Y-9881722D02*
X9154825Y-9862674D01*
X9154825Y-9862674D02*
X9173872Y-9853150D01*
X9173872Y-9853150D02*
X9202444Y-9853150D01*
X9202444Y-9853150D02*
X9221491Y-9862674D01*
X9221491Y-9862674D02*
X9231015Y-9881722D01*
X9231015Y-9881722D02*
X9231015Y-9986484D01*
X9621491Y-9776960D02*
X9450063Y-10034103D01*
X9878634Y-9786484D02*
X9897682Y-9786484D01*
X9897682Y-9786484D02*
X9916729Y-9796008D01*
X9916729Y-9796008D02*
X9926253Y-9805531D01*
X9926253Y-9805531D02*
X9935777Y-9824579D01*
X9935777Y-9824579D02*
X9945301Y-9862674D01*
X9945301Y-9862674D02*
X9945301Y-9910293D01*
X9945301Y-9910293D02*
X9935777Y-9948389D01*
X9935777Y-9948389D02*
X9926253Y-9967436D01*
X9926253Y-9967436D02*
X9916729Y-9976960D01*
X9916729Y-9976960D02*
X9897682Y-9986484D01*
X9897682Y-9986484D02*
X9878634Y-9986484D01*
X9878634Y-9986484D02*
X9859587Y-9976960D01*
X9859587Y-9976960D02*
X9850063Y-9967436D01*
X9850063Y-9967436D02*
X9840539Y-9948389D01*
X9840539Y-9948389D02*
X9831015Y-9910293D01*
X9831015Y-9910293D02*
X9831015Y-9862674D01*
X9831015Y-9862674D02*
X9840539Y-9824579D01*
X9840539Y-9824579D02*
X9850063Y-9805531D01*
X9850063Y-9805531D02*
X9859587Y-9796008D01*
X9859587Y-9796008D02*
X9878634Y-9786484D01*
X10031015Y-9967436D02*
X10040539Y-9976960D01*
X10040539Y-9976960D02*
X10031015Y-9986484D01*
X10031015Y-9986484D02*
X10021491Y-9976960D01*
X10021491Y-9976960D02*
X10031015Y-9967436D01*
X10031015Y-9967436D02*
X10031015Y-9986484D01*
X10231015Y-9986484D02*
X10116729Y-9986484D01*
X10173872Y-9986484D02*
X10173872Y-9786484D01*
X10173872Y-9786484D02*
X10154825Y-9815055D01*
X10154825Y-9815055D02*
X10135777Y-9834103D01*
X10135777Y-9834103D02*
X10116729Y-9843627D01*
X10297682Y-9786484D02*
X10421491Y-9786484D01*
X10421491Y-9786484D02*
X10354825Y-9862674D01*
X10354825Y-9862674D02*
X10383396Y-9862674D01*
X10383396Y-9862674D02*
X10402444Y-9872198D01*
X10402444Y-9872198D02*
X10411968Y-9881722D01*
X10411968Y-9881722D02*
X10421491Y-9900770D01*
X10421491Y-9900770D02*
X10421491Y-9948389D01*
X10421491Y-9948389D02*
X10411968Y-9967436D01*
X10411968Y-9967436D02*
X10402444Y-9976960D01*
X10402444Y-9976960D02*
X10383396Y-9986484D01*
X10383396Y-9986484D02*
X10326253Y-9986484D01*
X10326253Y-9986484D02*
X10307206Y-9976960D01*
X10307206Y-9976960D02*
X10297682Y-9967436D01*
X10602444Y-9786484D02*
X10507206Y-9786484D01*
X10507206Y-9786484D02*
X10497682Y-9881722D01*
X10497682Y-9881722D02*
X10507206Y-9872198D01*
X10507206Y-9872198D02*
X10526253Y-9862674D01*
X10526253Y-9862674D02*
X10573872Y-9862674D01*
X10573872Y-9862674D02*
X10592920Y-9872198D01*
X10592920Y-9872198D02*
X10602444Y-9881722D01*
X10602444Y-9881722D02*
X10611968Y-9900770D01*
X10611968Y-9900770D02*
X10611968Y-9948389D01*
X10611968Y-9948389D02*
X10602444Y-9967436D01*
X10602444Y-9967436D02*
X10592920Y-9976960D01*
X10592920Y-9976960D02*
X10573872Y-9986484D01*
X10573872Y-9986484D02*
X10526253Y-9986484D01*
X10526253Y-9986484D02*
X10507206Y-9976960D01*
X10507206Y-9976960D02*
X10497682Y-9967436D01*
X10726253Y-9872198D02*
X10707206Y-9862674D01*
X10707206Y-9862674D02*
X10697682Y-9853150D01*
X10697682Y-9853150D02*
X10688158Y-9834103D01*
X10688158Y-9834103D02*
X10688158Y-9824579D01*
X10688158Y-9824579D02*
X10697682Y-9805531D01*
X10697682Y-9805531D02*
X10707206Y-9796008D01*
X10707206Y-9796008D02*
X10726253Y-9786484D01*
X10726253Y-9786484D02*
X10764349Y-9786484D01*
X10764349Y-9786484D02*
X10783396Y-9796008D01*
X10783396Y-9796008D02*
X10792920Y-9805531D01*
X10792920Y-9805531D02*
X10802444Y-9824579D01*
X10802444Y-9824579D02*
X10802444Y-9834103D01*
X10802444Y-9834103D02*
X10792920Y-9853150D01*
X10792920Y-9853150D02*
X10783396Y-9862674D01*
X10783396Y-9862674D02*
X10764349Y-9872198D01*
X10764349Y-9872198D02*
X10726253Y-9872198D01*
X10726253Y-9872198D02*
X10707206Y-9881722D01*
X10707206Y-9881722D02*
X10697682Y-9891246D01*
X10697682Y-9891246D02*
X10688158Y-9910293D01*
X10688158Y-9910293D02*
X10688158Y-9948389D01*
X10688158Y-9948389D02*
X10697682Y-9967436D01*
X10697682Y-9967436D02*
X10707206Y-9976960D01*
X10707206Y-9976960D02*
X10726253Y-9986484D01*
X10726253Y-9986484D02*
X10764349Y-9986484D01*
X10764349Y-9986484D02*
X10783396Y-9976960D01*
X10783396Y-9976960D02*
X10792920Y-9967436D01*
X10792920Y-9967436D02*
X10802444Y-9948389D01*
X10802444Y-9948389D02*
X10802444Y-9910293D01*
X10802444Y-9910293D02*
X10792920Y-9891246D01*
X10792920Y-9891246D02*
X10783396Y-9881722D01*
X10783396Y-9881722D02*
X10764349Y-9872198D01*
X10878634Y-9786484D02*
X10878634Y-9824579D01*
X10954825Y-9786484D02*
X10954825Y-9824579D01*
X11250063Y-10062674D02*
X11240539Y-10053150D01*
X11240539Y-10053150D02*
X11221491Y-10024579D01*
X11221491Y-10024579D02*
X11211968Y-10005531D01*
X11211968Y-10005531D02*
X11202444Y-9976960D01*
X11202444Y-9976960D02*
X11192920Y-9929341D01*
X11192920Y-9929341D02*
X11192920Y-9891246D01*
X11192920Y-9891246D02*
X11202444Y-9843627D01*
X11202444Y-9843627D02*
X11211968Y-9815055D01*
X11211968Y-9815055D02*
X11221491Y-9796008D01*
X11221491Y-9796008D02*
X11240539Y-9767436D01*
X11240539Y-9767436D02*
X11250063Y-9757912D01*
X11411968Y-9853150D02*
X11411968Y-9986484D01*
X11364348Y-9776960D02*
X11316729Y-9919817D01*
X11316729Y-9919817D02*
X11440539Y-9919817D01*
X11669110Y-9986484D02*
X11669110Y-9786484D01*
X11754825Y-9986484D02*
X11754825Y-9881722D01*
X11754825Y-9881722D02*
X11745301Y-9862674D01*
X11745301Y-9862674D02*
X11726253Y-9853150D01*
X11726253Y-9853150D02*
X11697682Y-9853150D01*
X11697682Y-9853150D02*
X11678634Y-9862674D01*
X11678634Y-9862674D02*
X11669110Y-9872198D01*
X11878634Y-9986484D02*
X11859587Y-9976960D01*
X11859587Y-9976960D02*
X11850063Y-9967436D01*
X11850063Y-9967436D02*
X11840539Y-9948389D01*
X11840539Y-9948389D02*
X11840539Y-9891246D01*
X11840539Y-9891246D02*
X11850063Y-9872198D01*
X11850063Y-9872198D02*
X11859587Y-9862674D01*
X11859587Y-9862674D02*
X11878634Y-9853150D01*
X11878634Y-9853150D02*
X11907206Y-9853150D01*
X11907206Y-9853150D02*
X11926253Y-9862674D01*
X11926253Y-9862674D02*
X11935777Y-9872198D01*
X11935777Y-9872198D02*
X11945301Y-9891246D01*
X11945301Y-9891246D02*
X11945301Y-9948389D01*
X11945301Y-9948389D02*
X11935777Y-9967436D01*
X11935777Y-9967436D02*
X11926253Y-9976960D01*
X11926253Y-9976960D02*
X11907206Y-9986484D01*
X11907206Y-9986484D02*
X11878634Y-9986484D01*
X12059587Y-9986484D02*
X12040539Y-9976960D01*
X12040539Y-9976960D02*
X12031015Y-9957912D01*
X12031015Y-9957912D02*
X12031015Y-9786484D01*
X12211968Y-9976960D02*
X12192920Y-9986484D01*
X12192920Y-9986484D02*
X12154825Y-9986484D01*
X12154825Y-9986484D02*
X12135777Y-9976960D01*
X12135777Y-9976960D02*
X12126253Y-9957912D01*
X12126253Y-9957912D02*
X12126253Y-9881722D01*
X12126253Y-9881722D02*
X12135777Y-9862674D01*
X12135777Y-9862674D02*
X12154825Y-9853150D01*
X12154825Y-9853150D02*
X12192920Y-9853150D01*
X12192920Y-9853150D02*
X12211968Y-9862674D01*
X12211968Y-9862674D02*
X12221491Y-9881722D01*
X12221491Y-9881722D02*
X12221491Y-9900770D01*
X12221491Y-9900770D02*
X12126253Y-9919817D01*
X12297682Y-9976960D02*
X12316730Y-9986484D01*
X12316730Y-9986484D02*
X12354825Y-9986484D01*
X12354825Y-9986484D02*
X12373872Y-9976960D01*
X12373872Y-9976960D02*
X12383396Y-9957912D01*
X12383396Y-9957912D02*
X12383396Y-9948389D01*
X12383396Y-9948389D02*
X12373872Y-9929341D01*
X12373872Y-9929341D02*
X12354825Y-9919817D01*
X12354825Y-9919817D02*
X12326253Y-9919817D01*
X12326253Y-9919817D02*
X12307206Y-9910293D01*
X12307206Y-9910293D02*
X12297682Y-9891246D01*
X12297682Y-9891246D02*
X12297682Y-9881722D01*
X12297682Y-9881722D02*
X12307206Y-9862674D01*
X12307206Y-9862674D02*
X12326253Y-9853150D01*
X12326253Y-9853150D02*
X12354825Y-9853150D01*
X12354825Y-9853150D02*
X12373872Y-9862674D01*
X12450063Y-10062674D02*
X12459587Y-10053150D01*
X12459587Y-10053150D02*
X12478634Y-10024579D01*
X12478634Y-10024579D02*
X12488158Y-10005531D01*
X12488158Y-10005531D02*
X12497682Y-9976960D01*
X12497682Y-9976960D02*
X12507206Y-9929341D01*
X12507206Y-9929341D02*
X12507206Y-9891246D01*
X12507206Y-9891246D02*
X12497682Y-9843627D01*
X12497682Y-9843627D02*
X12488158Y-9815055D01*
X12488158Y-9815055D02*
X12478634Y-9796008D01*
X12478634Y-9796008D02*
X12459587Y-9767436D01*
X12459587Y-9767436D02*
X12450063Y-9757912D01*
X12811968Y-10062674D02*
X12802444Y-10053150D01*
X12802444Y-10053150D02*
X12783396Y-10024579D01*
X12783396Y-10024579D02*
X12773872Y-10005531D01*
X12773872Y-10005531D02*
X12764349Y-9976960D01*
X12764349Y-9976960D02*
X12754825Y-9929341D01*
X12754825Y-9929341D02*
X12754825Y-9891246D01*
X12754825Y-9891246D02*
X12764349Y-9843627D01*
X12764349Y-9843627D02*
X12773872Y-9815055D01*
X12773872Y-9815055D02*
X12783396Y-9796008D01*
X12783396Y-9796008D02*
X12802444Y-9767436D01*
X12802444Y-9767436D02*
X12811968Y-9757912D01*
X12888158Y-9853150D02*
X12888158Y-9986484D01*
X12888158Y-9872198D02*
X12897682Y-9862674D01*
X12897682Y-9862674D02*
X12916730Y-9853150D01*
X12916730Y-9853150D02*
X12945301Y-9853150D01*
X12945301Y-9853150D02*
X12964349Y-9862674D01*
X12964349Y-9862674D02*
X12973872Y-9881722D01*
X12973872Y-9881722D02*
X12973872Y-9986484D01*
X13097682Y-9986484D02*
X13078634Y-9976960D01*
X13078634Y-9976960D02*
X13069111Y-9967436D01*
X13069111Y-9967436D02*
X13059587Y-9948389D01*
X13059587Y-9948389D02*
X13059587Y-9891246D01*
X13059587Y-9891246D02*
X13069111Y-9872198D01*
X13069111Y-9872198D02*
X13078634Y-9862674D01*
X13078634Y-9862674D02*
X13097682Y-9853150D01*
X13097682Y-9853150D02*
X13126253Y-9853150D01*
X13126253Y-9853150D02*
X13145301Y-9862674D01*
X13145301Y-9862674D02*
X13154825Y-9872198D01*
X13154825Y-9872198D02*
X13164349Y-9891246D01*
X13164349Y-9891246D02*
X13164349Y-9948389D01*
X13164349Y-9948389D02*
X13154825Y-9967436D01*
X13154825Y-9967436D02*
X13145301Y-9976960D01*
X13145301Y-9976960D02*
X13126253Y-9986484D01*
X13126253Y-9986484D02*
X13097682Y-9986484D01*
X13221492Y-9853150D02*
X13297682Y-9853150D01*
X13250063Y-9786484D02*
X13250063Y-9957912D01*
X13250063Y-9957912D02*
X13259587Y-9976960D01*
X13259587Y-9976960D02*
X13278634Y-9986484D01*
X13278634Y-9986484D02*
X13297682Y-9986484D01*
X13516730Y-9853150D02*
X13516730Y-10053150D01*
X13516730Y-9862674D02*
X13535777Y-9853150D01*
X13535777Y-9853150D02*
X13573873Y-9853150D01*
X13573873Y-9853150D02*
X13592920Y-9862674D01*
X13592920Y-9862674D02*
X13602444Y-9872198D01*
X13602444Y-9872198D02*
X13611968Y-9891246D01*
X13611968Y-9891246D02*
X13611968Y-9948389D01*
X13611968Y-9948389D02*
X13602444Y-9967436D01*
X13602444Y-9967436D02*
X13592920Y-9976960D01*
X13592920Y-9976960D02*
X13573873Y-9986484D01*
X13573873Y-9986484D02*
X13535777Y-9986484D01*
X13535777Y-9986484D02*
X13516730Y-9976960D01*
X13726253Y-9986484D02*
X13707206Y-9976960D01*
X13707206Y-9976960D02*
X13697682Y-9957912D01*
X13697682Y-9957912D02*
X13697682Y-9786484D01*
X13888158Y-9986484D02*
X13888158Y-9881722D01*
X13888158Y-9881722D02*
X13878634Y-9862674D01*
X13878634Y-9862674D02*
X13859587Y-9853150D01*
X13859587Y-9853150D02*
X13821492Y-9853150D01*
X13821492Y-9853150D02*
X13802444Y-9862674D01*
X13888158Y-9976960D02*
X13869111Y-9986484D01*
X13869111Y-9986484D02*
X13821492Y-9986484D01*
X13821492Y-9986484D02*
X13802444Y-9976960D01*
X13802444Y-9976960D02*
X13792920Y-9957912D01*
X13792920Y-9957912D02*
X13792920Y-9938865D01*
X13792920Y-9938865D02*
X13802444Y-9919817D01*
X13802444Y-9919817D02*
X13821492Y-9910293D01*
X13821492Y-9910293D02*
X13869111Y-9910293D01*
X13869111Y-9910293D02*
X13888158Y-9900770D01*
X13954825Y-9853150D02*
X14031015Y-9853150D01*
X13983396Y-9786484D02*
X13983396Y-9957912D01*
X13983396Y-9957912D02*
X13992920Y-9976960D01*
X13992920Y-9976960D02*
X14011968Y-9986484D01*
X14011968Y-9986484D02*
X14031015Y-9986484D01*
X14173873Y-9976960D02*
X14154825Y-9986484D01*
X14154825Y-9986484D02*
X14116730Y-9986484D01*
X14116730Y-9986484D02*
X14097682Y-9976960D01*
X14097682Y-9976960D02*
X14088158Y-9957912D01*
X14088158Y-9957912D02*
X14088158Y-9881722D01*
X14088158Y-9881722D02*
X14097682Y-9862674D01*
X14097682Y-9862674D02*
X14116730Y-9853150D01*
X14116730Y-9853150D02*
X14154825Y-9853150D01*
X14154825Y-9853150D02*
X14173873Y-9862674D01*
X14173873Y-9862674D02*
X14183396Y-9881722D01*
X14183396Y-9881722D02*
X14183396Y-9900770D01*
X14183396Y-9900770D02*
X14088158Y-9919817D01*
X14354825Y-9986484D02*
X14354825Y-9786484D01*
X14354825Y-9976960D02*
X14335777Y-9986484D01*
X14335777Y-9986484D02*
X14297682Y-9986484D01*
X14297682Y-9986484D02*
X14278634Y-9976960D01*
X14278634Y-9976960D02*
X14269111Y-9967436D01*
X14269111Y-9967436D02*
X14259587Y-9948389D01*
X14259587Y-9948389D02*
X14259587Y-9891246D01*
X14259587Y-9891246D02*
X14269111Y-9872198D01*
X14269111Y-9872198D02*
X14278634Y-9862674D01*
X14278634Y-9862674D02*
X14297682Y-9853150D01*
X14297682Y-9853150D02*
X14335777Y-9853150D01*
X14335777Y-9853150D02*
X14354825Y-9862674D01*
X14431015Y-10062674D02*
X14440539Y-10053150D01*
X14440539Y-10053150D02*
X14459587Y-10024579D01*
X14459587Y-10024579D02*
X14469111Y-10005531D01*
X14469111Y-10005531D02*
X14478634Y-9976960D01*
X14478634Y-9976960D02*
X14488158Y-9929341D01*
X14488158Y-9929341D02*
X14488158Y-9891246D01*
X14488158Y-9891246D02*
X14478634Y-9843627D01*
X14478634Y-9843627D02*
X14469111Y-9815055D01*
X14469111Y-9815055D02*
X14459587Y-9796008D01*
X14459587Y-9796008D02*
X14440539Y-9767436D01*
X14440539Y-9767436D02*
X14431015Y-9757912D01*
M02*
